<?xml version="1.0" encoding="UTF-8"?>
<svg width="79px" height="24px" viewBox="0 0 79 24" version="1.1" xmlns="http://www.w3.org/2000/svg" xmlns:xlink="http://www.w3.org/1999/xlink">
    <title>Angle</title>
    <g id="Page-1" stroke="none" stroke-width="1" fill="none" fill-rule="evenodd">
        <g id="/" transform="translate(-192.000000, -20.000000)" fill="#161616" fill-rule="nonzero">
            <path d="M196.220339,38.8644068 L197.79661,35.0508475 L206.059322,35.0508475 L207.635593,38.8644068 L211.957627,38.8644068 L204,21.0677966 L199.932203,21.0677966 L192,38.8644068 L196.220339,38.8644068 Z M204.762712,31.9237288 L199.118644,31.9237288 L201.940678,25.1101695 L204.762712,31.9237288 Z M217.5,38.8644068 L217.5,32.1016949 C217.5,29.5847458 218.872881,28.4152542 220.779661,28.4152542 C222.533898,28.4152542 223.550847,29.4322034 223.550847,31.6440678 L223.550847,38.8644068 L227.516949,38.8644068 L227.516949,31.0338983 C227.516949,26.8644068 225.076271,24.9830508 221.847458,24.9830508 C219.991525,24.9830508 218.389831,25.6186441 217.322034,26.7881356 L217.322034,25.1864407 L213.533898,25.1864407 L213.533898,38.8644068 L217.5,38.8644068 Z M237.686441,44 C242.618644,44 245.364407,41.6610169 245.364407,36.5762712 L245.364407,25.1864407 L241.601695,25.1864407 L241.601695,26.940678 C240.559322,25.6186441 238.983051,24.9830508 237.076271,24.9830508 C233.288136,24.9830508 230.237288,27.6016949 230.237288,31.5932203 C230.237288,35.5847458 233.288136,38.2033898 237.076271,38.2033898 C238.855932,38.2033898 240.355932,37.6440678 241.398305,36.5 L241.398305,37.0847458 C241.398305,39.5508475 240.177966,40.8220339 237.381356,40.8220339 C235.627119,40.8220339 233.720339,40.2118644 232.550847,39.2711864 L230.974576,42.1186441 C232.576271,43.3644068 235.09322,44 237.686441,44 Z M237.864407,34.9491525 C235.779661,34.9491525 234.254237,33.6016949 234.254237,31.5932203 C234.254237,29.5847458 235.779661,28.2372881 237.864407,28.2372881 C239.949153,28.2372881 241.449153,29.5847458 241.449153,31.5932203 C241.449153,33.6016949 239.949153,34.9491525 237.864407,34.9491525 Z M253.016949,38.8644068 L253.016949,20 L249.050847,20 L249.050847,38.8644068 L253.016949,38.8644068 Z M263.491525,39.0677966 C265.957627,39.0677966 267.864407,38.3050847 269.135593,36.8559322 L267.025424,34.5677966 C266.084746,35.4576271 265.042373,35.8898305 263.59322,35.8898305 C261.508475,35.8898305 260.059322,34.8474576 259.677966,33.1440678 L270.025424,33.1440678 C270.050847,32.8135593 270.101695,32.3813559 270.101695,32.0762712 C270.101695,27.6779661 267,24.9830508 262.983051,24.9830508 C258.813559,24.9830508 255.686441,27.9322034 255.686441,32.0254237 C255.686441,36.0932203 258.762712,39.0677966 263.491525,39.0677966 Z M266.364407,30.8305085 L259.627119,30.8305085 C259.90678,29.0762712 261.20339,27.9830508 263.008475,27.9830508 C264.788136,27.9830508 266.084746,29.1016949 266.364407,30.8305085 Z" id="Angle"></path>
        </g>
    </g>
</svg>